<svg xmlns="http://www.w3.org/2000/svg" width="20" height="20" fill="none" viewBox="0 0 20 20">
  <path stroke="#14464F" stroke-linecap="round" stroke-linejoin="round" stroke-width="1.5" d="M2.5 16.667h10.833"/>
  <path stroke="#14464F" stroke-linecap="round" stroke-linejoin="round" stroke-width="1.5" d="M4.697 12.197 2.5 10l1.294-.646a.831.831 0 0 1 .745 0L5.833 10l2.66-1.647L5 5.019l2.5-.852 4.167 2.5 3.922-2.242a1.667 1.667 0 0 1 2.444 1.044v0a1.667 1.667 0 0 1-.76 1.834l-7.002 4.202c-.18.107-.378.18-.584.214l-4.264.711a.836.836 0 0 1-.726-.233Z" clip-rule="evenodd"/>
</svg>
